<svg width="81" height="89" viewBox="0 0 81 89" fill="none" xmlns="http://www.w3.org/2000/svg">
<path d="M27.406 0V15.6351H9.74436V0H0V19.8981C0 22.3763 2.35144 24.0541 4.86061 24.0541H27.406V31.8716H0V41.4932H31.6747C34.1838 41.4932 35.3233 38.5316 35.3233 36.0528V19.8981V19.4026V0H27.406Z" fill="#DB0000"/>
<path d="M80.9998 9.02027V0H49.3983C46.8885 0 44.4585 1.71385 44.4585 4.19202V36.0528C44.4585 38.5316 46.8885 41.4932 49.3983 41.4932H75.7574C78.2672 41.4932 80.9992 38.3933 80.9992 35.9145V19.7598C80.9992 17.2816 78.2672 15.6351 75.7574 15.6351H63.3382V24.0541H71.8645V31.8716H54.2029V9.02027H80.9998Z" fill="#DB0000"/>
<path d="M35.3233 57.1284V48.1082H4.86061C2.35144 48.1082 0 50.1786 0 52.6562V68.3623C0 70.8416 2.35144 73.3649 4.86061 73.3649H27.406V79.3784H0V89H31.6747C34.1838 89 35.3233 86.5471 35.3233 84.069V68.3629C35.3233 65.8847 34.1838 64.3446 31.6747 64.3446H9.74436V57.1284H35.3233Z" fill="#DB0000"/>
<path d="M80.9998 52.6947C80.9998 50.2165 78.417 48.1082 75.9066 48.1082H49.4117C46.9013 48.1082 44.4585 50.2345 44.4585 52.7127V68.3611C44.4585 70.8392 46.9013 73.3643 49.4117 73.3643H75.9066C78.417 73.3643 80.9998 70.8212 80.9998 68.343V52.6947ZM71.8645 64.3446H54.2029V57.1284H71.8645V64.3446Z" fill="#DB0000"/>
<path d="M80.9998 79.3784H44.4585V89H80.9998V79.3784Z" fill="#DB0000"/>
</svg>
